<svg xmlns="http://www.w3.org/2000/svg" viewBox="0 0 760 332" width="760" height="332" font-family="-apple-system,BlinkMacSystemFont,Segoe UI,Helvetica,Arial,sans-serif">
<rect width="760" height="332" rx="8" fill="#ffffff"/>
<text x="16" y="26" font-size="15" font-weight="600" fill="#1f2937">Time to flash a Pantavisor Raspberry Pi image (lower is better)</text>
<text x="16" y="44" font-size="12" fill="#6b7280">715 MB .wic.bz2 · microSD in a USB 3 reader · cold cache · mean of 2 runs</text>
<line x1="210.0" y1="52" x2="210.0" y2="296" stroke="#e5e7eb" stroke-width="1"/>
<text x="210.0" y="312" font-size="11" text-anchor="middle" fill="#6b7280">0 s</text>
<line x1="330.0" y1="52" x2="330.0" y2="296" stroke="#e5e7eb" stroke-width="1"/>
<text x="330.0" y="312" font-size="11" text-anchor="middle" fill="#6b7280">20 s</text>
<line x1="450.0" y1="52" x2="450.0" y2="296" stroke="#e5e7eb" stroke-width="1"/>
<text x="450.0" y="312" font-size="11" text-anchor="middle" fill="#6b7280">40 s</text>
<line x1="570.0" y1="52" x2="570.0" y2="296" stroke="#e5e7eb" stroke-width="1"/>
<text x="570.0" y="312" font-size="11" text-anchor="middle" fill="#6b7280">60 s</text>
<line x1="690.0" y1="52" x2="690.0" y2="296" stroke="#e5e7eb" stroke-width="1"/>
<text x="690.0" y="312" font-size="11" text-anchor="middle" fill="#6b7280">80 s</text>
<text x="200" y="79.0" font-size="13" text-anchor="end" fill="#1f2937" font-weight="400">bmaptool 3.9.0</text>
<path d="M210,65.0 h161.9 a4,4 0 0 1 4,4 v12 a4,4 0 0 1 -4,4 h-161.9 z" fill="#7d889a"><title>bmaptool 3.9.0: 27.7 s</title></path>
<text x="383.9" y="79.0" font-size="12" fill="#1f2937" font-weight="400">27.7 s</text>
<text x="200" y="113.0" font-size="13" text-anchor="end" fill="#1f2937" font-weight="600">pvflasher</text>
<path d="M210,99.0 h168.3 a4,4 0 0 1 4,4 v12 a4,4 0 0 1 -4,4 h-168.3 z" fill="#2563eb"><title>pvflasher: 28.7 s</title></path>
<text x="390.3" y="113.0" font-size="12" fill="#1f2937" font-weight="600">28.7 s</text>
<text x="200" y="147.0" font-size="13" text-anchor="end" fill="#1f2937" font-weight="600">pvflasher + verify</text>
<path d="M210,133.0 h197.0 a4,4 0 0 1 4,4 v12 a4,4 0 0 1 -4,4 h-197.0 z" fill="#2563eb"><title>pvflasher + verify: 33.5 s</title></path>
<text x="419.0" y="147.0" font-size="12" fill="#1f2937" font-weight="600">33.5 s</text>
<text x="200" y="181.0" font-size="13" text-anchor="end" fill="#1f2937" font-weight="400">Raspberry Pi Imager</text>
<path d="M210,167.0 h222.8 a4,4 0 0 1 4,4 v12 a4,4 0 0 1 -4,4 h-222.8 z" fill="#7d889a"><title>Raspberry Pi Imager: 37.8 s</title></path>
<text x="444.8" y="181.0" font-size="12" fill="#1f2937" font-weight="400">37.8 s</text>
<text x="200" y="215.0" font-size="13" text-anchor="end" fill="#1f2937" font-weight="400">Raspberry Pi Imager + verify</text>
<path d="M210,201.0 h267.4 a4,4 0 0 1 4,4 v12 a4,4 0 0 1 -4,4 h-267.4 z" fill="#7d889a"><title>Raspberry Pi Imager + verify: 45.2 s</title></path>
<text x="489.4" y="215.0" font-size="12" fill="#1f2937" font-weight="400">45.2 s</text>
<text x="200" y="249.0" font-size="13" text-anchor="end" fill="#1f2937" font-weight="400">dd (bs=4M)</text>
<path d="M210,235.0 h311.2 a4,4 0 0 1 4,4 v12 a4,4 0 0 1 -4,4 h-311.2 z" fill="#7d889a"><title>dd (bs=4M): 52.5 s</title></path>
<text x="533.2" y="249.0" font-size="12" fill="#1f2937" font-weight="400">52.5 s</text>
<text x="200" y="283.0" font-size="13" text-anchor="end" fill="#1f2937" font-weight="400">balenaEtcher engine*</text>
<path d="M210,269.0 h467.3 a4,4 0 0 1 4,4 v12 a4,4 0 0 1 -4,4 h-467.3 z" fill="#7d889a"><title>balenaEtcher engine*: 78.6 s</title></path>
<text x="689.3" y="283.0" font-size="12" fill="#1f2937" font-weight="400">78.6 s</text>
</svg>